<svg id="Layer_2" data-name="Layer 2" xmlns="http://www.w3.org/2000/svg" width="19" height="19" viewBox="0 0 19 19"><title>atm_15</title><path d="M9.517,10.652a.746.746,0,0,1-.634.551c-.267.05-.546.04-.819.066-.07.007-.2.048-.2.07.009.222-.04.506.077.653.54.679,1.126,1.322,1.7,1.973a.358.358,0,0,0,.207.124,5.112,5.112,0,0,0,.619,0c.17-.006.218-.1.114-.235s-.237-.295-.359-.44c-.414-.489-.83-.976-1.267-1.49a1.6,1.6,0,0,0,1.474-1.276,3.8,3.8,0,0,1,.4,0c.241.028.33-.053.328-.31s-.079-.347-.326-.316a1.278,1.278,0,0,1-.309,0,.2.2,0,0,1-.138-.082c-.065-.134-.112-.278-.172-.435.239,0,.455-.016.667,0,.262.024.265-.123.268-.316s-.025-.315-.275-.311c-.851.014-1.7,0-2.554.007-.533,0-.476-.09-.486.5,0,.166.058.228.225.229a6.825,6.825,0,0,1,.822.039.661.661,0,0,1,.563.365c-.472,0-.911.012-1.348,0-.239-.008-.27.107-.262.3.007.176-.027.343.251.332C8.551,10.638,9.014,10.652,9.517,10.652ZM15.174,4.62H3.826v1H4.945V16.6a1.3,1.3,0,0,0,1.3,1.3h6.52a1.3,1.3,0,0,0,1.3-1.3V5.62h1.119ZM13.055,16.6a.3.3,0,0,1-.295.3H6.24a.3.3,0,0,1-.295-.3V5.62h7.11Zm2.8-8.109H14.632v-1h1.222a.665.665,0,0,0,.665-.664V3.41a.665.665,0,0,0-.665-.664H3.146a.665.665,0,0,0-.665.664V6.829a.665.665,0,0,0,.665.664H4.307v1H3.146A1.666,1.666,0,0,1,1.481,6.829V3.41A1.666,1.666,0,0,1,3.146,1.746H15.854A1.666,1.666,0,0,1,17.519,3.41V6.829A1.666,1.666,0,0,1,15.854,8.493Z"/></svg>