<svg id="Layer_2" data-name="Layer 2" xmlns="http://www.w3.org/2000/svg" width="19" height="19" viewBox="0 0 19 19"><title>buddhist_15</title><path d="M10.671,5.692H8.329A.141.141,0,0,1,8.2,5.5l.478-1.183a.141.141,0,0,1,.131-.088l1.372.013a.138.138,0,0,1,.128.086L10.8,5.5A.14.14,0,0,1,10.671,5.692ZM9.492,2.6l-.372.923h.76Zm-2.3,6.319c-.688.155-3.847,1.2-4.045,7.359-.007.2.113.363.259.364l12.188.059c.143,0,.26-.148.261-.34.009-1.285-.222-5.842-3.838-7.362a1.121,1.121,0,0,0-.424-.084l-4.169-.02A1.069,1.069,0,0,0,7.191,8.918ZM11.752,7.81,11.2,6.485a.139.139,0,0,0-.13-.086H7.916a.139.139,0,0,0-.13.087L7.247,7.819a.14.14,0,0,0,.131.193l4.244-.007A.14.14,0,0,0,11.752,7.81Z"/></svg>