<svg id="Layer_2" data-name="Layer 2" xmlns="http://www.w3.org/2000/svg" width="19" height="19" viewBox="0 0 19 19"><title>gate-15</title><path d="M16.025,16.414v-5.8H12.371v5.8Zm-2.349-4.232H14.2a.261.261,0,1,1,0,.522h-.522a.261.261,0,1,1,0-.522ZM1.148,16.938h16.7v.522H1.148Zm5.481-.524v-5.8H2.975v5.8ZM4.8,12.182h.522a.261.261,0,0,1,0,.522H4.8a.261.261,0,1,1,0-.522ZM6.107,4.15a.261.261,0,0,1,.261-.261H6.89a.261.261,0,0,1,.261.261h4.7a.261.261,0,0,1,.261-.261h.522a.261.261,0,0,1,.261.261H14.72V1.8a.261.261,0,1,0-.522,0v.783H4.8V1.8a.261.261,0,1,0-.522,0h0V4.15Zm10.662.65a.261.261,0,0,0-.222-.123H2.453a.261.261,0,0,0-.261.259.269.269,0,0,0,.028.118L2.975,6.56v3.592H6.629V9.109A2.351,2.351,0,0,1,8.978,6.76h1.044a2.351,2.351,0,0,1,2.349,2.349v1.043h3.654V6.56l.755-1.511a.261.261,0,0,0-.011-.254ZM5.324,7.282H4.8a.261.261,0,0,1,0-.522h.522a.261.261,0,0,1,0,.522Zm8.352-.522H14.2a.261.261,0,0,1,0,.522h-.522a.261.261,0,1,1,0-.522h0Zm0,2.87h-.261a.261.261,0,1,1-.032-.521h.293a.261.261,0,1,1,.032.521Zm1.044,0h-.261a.261.261,0,1,1-.032-.521h.293a.261.261,0,1,1,.032.521Z"/></svg>