<svg id="Layer_2" data-name="Layer 2" xmlns="http://www.w3.org/2000/svg" width="15" height="15" viewBox="0 0 15 15"><title>office-11</title><path d="M12.1,6.6a1.007,1.007,0,0,1-.3.1H3.3c-.4,0-.4,0-.4-.4V6c0-.2.1-.3.3-.4L7.4,4.1V2.6H9.6L9,3.5H7.7v.7l4.2,1.5c.1,0,.3.1.3.2A1.7,1.7,0,0,1,12.1,6.6Z"/><path d="M6.6,9.2V7.8a.265.265,0,0,1,.3-.3H8.1a.265.265,0,0,1,.3.3v2.9c0,.2-.1.2-.2.2H6.9a.265.265,0,0,1-.3-.3Z"/><path d="M5.4,9.2v1.4a.265.265,0,0,1-.3.3H4a.265.265,0,0,1-.3-.3V7.8A.265.265,0,0,1,4,7.5H5.1a.265.265,0,0,1,.3.3Z"/><path d="M9.6,9.2V7.8a.265.265,0,0,1,.3-.3H11a.265.265,0,0,1,.3.3v2.8a.265.265,0,0,1-.3.3H9.8a.265.265,0,0,1-.3-.3,6.6,6.6,0,0,0,.1-1.4Z"/><path d="M2.2,11.7H12.7a.215.215,0,0,1,.2.2v.2a.215.215,0,0,1-.2.2H2.2a.215.215,0,0,1-.2-.2v-.2A.215.215,0,0,1,2.2,11.7Z"/></svg>