<svg xmlns="http://www.w3.org/2000/svg" viewBox="0 0 19 19" height="19" width="19"><title>beverages_15.svg</title><rect fill="none" x="0" y="0" width="19" height="19"></rect><path fill="#2b2525" transform="translate(2 2)" d="M3.21,0C2.14,0,2.14.54,2.14,2.14,2.14,3.21,0,7.5,0,8.57v5.36A1.07,1.07,0,0,0,1.07,15H5.36a1,1,0,0,0,1.07-1.07V8.57c0-1.07-2.14-5.36-2.14-6.43C4.29.5,4.29,0,3.21,0Zm8.44,1.07L10.58,5.36h1.21l.8-3.22H15V1.07ZM7.5,6.43l1.07,7.5A1,1,0,0,0,9.64,15h2.15a1,1,0,0,0,1.07-1.07l1.07-7.5Z"></path></svg>