<svg xmlns="http://www.w3.org/2000/svg" viewBox="0 0 21 21" height="21" width="21"><title>buddhist_11.svg</title><rect fill="none" x="0" y="0" width="21" height="21"></rect><path fill="#292624" transform="translate(3 3)" d="M8.194,4.625H6.433a.106.106,0,0,1-.1-.145l.359-.889a.1.1,0,0,1,.1-.066l1.031.009a.107.107,0,0,1,.1.064l.371.88A.106.106,0,0,1,8.194,4.625ZM7.308,2.3l-.28.7H7.6ZM5.578,7.05c-.517.117-2.892.9-3.042,5.533,0,.147.085.273.195.273l9.163.045c.108,0,.2-.112.2-.256.006-.966-.167-4.392-2.886-5.534a.845.845,0,0,0-.319-.064L5.752,7.032A.791.791,0,0,0,5.578,7.05Zm3.428-.832-.418-1a.107.107,0,0,0-.1-.065H6.123a.105.105,0,0,0-.1.066l-.405,1a.105.105,0,0,0,.1.145l3.191,0A.1.1,0,0,0,9.006,6.218Z"></path></svg>