<svg xmlns="http://www.w3.org/2000/svg" viewBox="0 0 19 19" height="19" width="19"><title>bus-stop_15.svg</title><rect fill="none" x="0" y="0" width="19" height="19"></rect><path fill="#2b2525" transform="translate(2 2)" d="M3.21,0A2.3,2.3,0,0,0,1.07,2.14V13.38H2.14c0,.55,0,1.62,1.07,1.62s1.08-1.07,1.08-1.62l6.42,0c0,.52,0,1.59,1.08,1.59s1.07-1.07,1.07-1.59h1.07V2.14A2.3,2.3,0,0,0,11.79,0ZM4.29,1.07h6.42V2.14H4.29ZM3.21,3.18l8.58,0V7.5l-8.58,0ZM4.29,9.64a1.08,1.08,0,0,1,0,2.15,1.08,1.08,0,1,1,0-2.15Zm6.42,0a1.08,1.08,0,1,1-1.07,1.07A1.08,1.08,0,0,1,10.71,9.64Z"></path></svg>