<svg xmlns="http://www.w3.org/2000/svg" viewBox="0 0 19 19" height="19" width="19"><title>bus-station_15.svg</title><rect fill="none" x="0" y="0" width="19" height="19"></rect><path fill="#121111" transform="translate(2 2)" d="M5.36,0C3.21,0,1.07,3.21,1.07,7.5v5.89H2.14c0,.56,0,1.61,1.07,1.61S4.29,14,4.29,13.39h6.42c0,.52,0,1.61,1.08,1.61s1.07-1.09,1.07-1.61h1.07V7.5c0-4.29-2.14-7.5-4.29-7.5ZM4.29,2.14h6.42c.57,0,1.08,2.15,1.08,5.36l-8.58,0C3.21,4.29,3.75,2.14,4.29,2.14ZM3.21,9.91H6.43v1.61H3.21Zm5.36,0h3.22v1.61H8.57Z"></path></svg>