<svg xmlns="http://www.w3.org/2000/svg" viewBox="0 0 19 19" height="19" width="19"><title>chemist_15.svg</title><rect fill="none" x="0" y="0" width="19" height="19"></rect><path fill="#2b2525" transform="translate(2 2)" d="M2.14,0V2.68H6.43V0Zm7.5,0V.8c.54,0,1.88,0,1.88-.8Zm2.68,0V13.93c0,1.07.81,1.07.81,1.07s.8,0,.8-1.07V1.61A1.53,1.53,0,0,0,12.32,0ZM9.64,1.07v.81c.57,0,1.88,0,1.88-.81Zm0,1.07V3c.51,0,1.88,0,1.88-.81Zm0,1.07V4c.54,0,1.88,0,1.88-.81ZM2.14,4.29c0,4.28-1.07,6.42-1.07,8.57H7.5c0-2.15-1.07-4.29-1.07-8.57Zm7.5,0v.8c.57,0,1.88,0,1.88-.8ZM1.07,13.93A1,1,0,0,0,2.14,15H6.43A1,1,0,0,0,7.5,13.93Z"></path></svg>