<svg xmlns="http://www.w3.org/2000/svg" viewBox="0 0 19 19" height="19" width="19"><title>clock_15.svg</title><rect fill="none" x="0" y="0" width="19" height="19"></rect><path fill="#2b2525" transform="translate(2 2)" d="M7.5,0A7.5,7.5,0,1,0,15,7.5,7.52,7.52,0,0,0,7.5,0Zm0,2.14A5.36,5.36,0,1,1,2.14,7.5,5.35,5.35,0,0,1,7.5,2.14ZM7.23,3.45a.45.45,0,0,0-.16,0,.81.81,0,0,0-.64.81V7.9l.33.24,2.15,1.6a.79.79,0,0,0,.86.21.83.83,0,0,0,.53-.72.82.82,0,0,0-.46-.76L8,7.1V4.29a.86.86,0,0,0-.23-.59A.79.79,0,0,0,7.23,3.45Z"></path></svg>