<svg xmlns="http://www.w3.org/2000/svg" viewBox="0 0 19 19" height="19" width="19"><title>computer_15.svg</title><rect fill="none" x="0" y="0" width="19" height="19"></rect><path fill="#2b2525" transform="translate(2 2)" d="M3.75,2.14A1.49,1.49,0,0,0,2.14,3.75v7H12.86v-7a1.6,1.6,0,0,0-1.61-1.61Zm3.75.47a.4.4,0,1,1-.4.4A.4.4,0,0,1,7.5,2.61ZM3.21,3.75h8.58V9.64H3.21ZM4.29,5.09v.27H7.5V5.09Zm4.28,0v.27h2.14V5.09ZM4.29,6.16v.27H8.57V6.16Zm5.35,0v.27h1.07V6.16ZM4.29,7.23V7.5H6.43V7.23Zm3.21,0V7.5h3.21V7.23ZM4.29,8.3v.27h6.42V8.3ZM1.34,11.79C0,11.79,0,12.86,0,12.86s0,1.07,1.34,1.07H13.66C15,13.93,15,12.86,15,12.86s0-1.07-1.34-1.07Zm5.09.8H8.57c.52,0,.62.54,0,.54H6.43C5.91,13.13,5.86,12.59,6.43,12.59Z"></path></svg>