<svg xmlns="http://www.w3.org/2000/svg" viewBox="0 0 19 19" height="19" width="19"><title>fuel_15.svg</title><rect fill="none" x="0" y="0" width="19" height="19"></rect><path fill="#121111" transform="translate(2 2)" d="M11.55,0l-.67.77,1.27,1.17.14.13L12,2.38a.83.83,0,0,0,0,1.14l.81.8v6.39c0,1.08-.42,1.08-.54,1.08s-.53,0-.53-1.08V6.43A2.09,2.09,0,0,0,9.64,4.29V2.14A1.05,1.05,0,0,0,8.57,1.07H2.14A1,1,0,0,0,1.07,2.14V15H9.64V5.36a1,1,0,0,1,1.07,1.07v4.28c0,2.15,1.33,2.15,1.61,2.15s1.61,0,1.61-2.15V3.21a1.77,1.77,0,0,0-.67-1.64ZM2.14,3.21H8.57V6.43H2.14Z"></path></svg>