<svg xmlns="http://www.w3.org/2000/svg" viewBox="0 0 19 19" height="19" width="19"><title>heliport_15.svg</title><rect fill="none" x="0" y="0" width="19" height="19"></rect><path fill="#121111" transform="translate(2 2)" d="M2.14,1.07,3.21,2.14H8.57V4.29H3.52a2.07,2.07,0,0,0-1.38-.54A2.15,2.15,0,0,0,2.14,8a2.05,2.05,0,0,0,1.21-.41l2,2A2.31,2.31,0,0,0,7.5,11.79h5.36A2.31,2.31,0,0,0,15,9.64,5.45,5.45,0,0,0,9.64,4.29V2.14h4.29L15,1.07Zm0,3.75A1.07,1.07,0,0,1,2.14,7a1.07,1.07,0,1,1,0-2.14Zm7.5.54a4.6,4.6,0,0,1,4.29,4.28H10.71A1.12,1.12,0,0,1,9.64,8.57Zm-3.21,7.5c-.56,0-.53,1.07,0,1.07h7.5c.63,0,.6-1.07,0-1.07Z"></path></svg>