<svg xmlns="http://www.w3.org/2000/svg" viewBox="0 0 19 19" height="19" width="19"><title>motel_15.svg</title><rect fill="none" x="0" y="0" width="19" height="19"></rect><path fill="#2b2525" transform="translate(2 2)" d="M.67,0C.27,0,0,.27,0,.8V7H1.34V5.36s11.12,0,12.32,0V7H15V1.88c0-.36-.15-.81-.67-.81a.68.68,0,0,0-.67.81V4H1.34V.8C1.34.27,1.07,0,.67,0ZM3.75,0A1.61,1.61,0,1,0,5.36,1.61,1.61,1.61,0,0,0,3.75,0ZM5.89,1.07V3.21h7a2.34,2.34,0,0,0-2.15-2.14ZM4.29,6.43,3.21,9.64a1.08,1.08,0,0,0-1.07,1.07v3.22H3.21A1.05,1.05,0,0,0,4.29,15a1,1,0,0,0,1.07-1.07H9.64a1.08,1.08,0,0,0,2.15,0h1.07V10.71a1.1,1.1,0,0,0-1.07-1.07L10.71,6.43ZM5.36,7.5H9.64l.67,2.14H4.69ZM4.29,11a.81.81,0,1,1-.81.81A.8.8,0,0,1,4.29,11Zm6.42,0a.81.81,0,1,1-.8.81A.81.81,0,0,1,10.71,11Z"></path></svg>