<svg xmlns="http://www.w3.org/2000/svg" viewBox="0 0 19 19" height="19" width="19"><title>shared-car_15.svg</title><rect fill="none" x="0" y="0" width="19" height="19"></rect><path fill="#725a50" transform="translate(2 2)" d="M4.18,0a1.35,1.35,0,1,0,1,.36A1.32,1.32,0,0,0,4.18,0Zm6.43,0A1.33,1.33,0,0,0,9.38,1.34,1.34,1.34,0,1,0,10.75,0h-.14ZM3.21,3.21A1.05,1.05,0,0,0,2.14,4.29V5.36H6.43V4.29A1.05,1.05,0,0,0,5.36,3.21Zm6.43,0A1.05,1.05,0,0,0,8.57,4.29V5.36h4.29V4.29a1.05,1.05,0,0,0-1.07-1.08ZM4.29,6.43,3.21,9.64a1,1,0,0,0-1.07,1.07v3.22H3.21A1.05,1.05,0,0,0,4.29,15a1,1,0,0,0,1.07-1.07H9.64a1.08,1.08,0,0,0,2.15,0h1.07V10.71a1.13,1.13,0,0,0-1.07-1.07L10.71,6.43ZM5.36,7.5H9.64l.67,2.14H4.69ZM4.29,11a.81.81,0,1,1-.81.81A.8.8,0,0,1,4.29,11Zm6.42,0a.81.81,0,1,1-.8.81A.81.81,0,0,1,10.71,11Z"></path></svg>