<svg id="Layer_1" data-name="Layer 1" xmlns="http://www.w3.org/2000/svg" width="15" height="15" viewBox="0 0 15 15">
  <g id="surface1">
    <path d="M3.21,0C2.14,0,2.14.5,2.14,1.07V3.21C2.14,4.29,0,4.29,0,6.43v7.5A1.07,1.07,0,0,0,1.07,15H5.36a1,1,0,0,0,1.07-1.07V6.43c0-2.14-2.14-2.14-2.14-3.22V1.07C4.29.46,4.29,0,3.21,0ZM7.5,5.36c0,3.21.5,5.35,3.21,5.35v2.15c0,.71-1.07,1.07-1.6,1.07C8,13.93,7.5,13.93,7.5,15H15c0-1.07-.54-1.07-1.61-1.07-.53,0-1.6-.39-1.6-1.07V10.71c2.64,0,3.21-2.14,3.21-5.35Z"/>
  </g>
</svg>
