<svg id="Layer_1" data-name="Layer 1" xmlns="http://www.w3.org/2000/svg" width="15" height="15" viewBox="0 0 15 15">
  <g id="surface1">
    <path d="M0,2.14v7.5a1,1,0,0,0,1.07,1.07H13.93A1,1,0,0,0,15,9.64V2.14ZM3.21,3.21h8.58a2.3,2.3,0,0,0,2.14,2.15V7.5a2.3,2.3,0,0,0-2.14,2.14H3.21A2.3,2.3,0,0,0,1.07,7.5V5.36A2.3,2.3,0,0,0,3.21,3.21ZM7.5,4.29c-1.77,0-3.21,1-3.21,2.14S5.73,8.57,7.5,8.57s3.21-1,3.21-2.14S9.27,4.29,7.5,4.29Zm-7.5,7c0,1.21.48,1.61,1.07,1.61H13.93c.59,0,1.07-.48,1.07-1.61a1.51,1.51,0,0,1-1.07.54H1.07A1.55,1.55,0,0,1,0,11.25Z"/>
  </g>
</svg>
