<svg id="Layer_1" data-name="Layer 1" xmlns="http://www.w3.org/2000/svg" width="15" height="15" viewBox="0 0 15 15">
  <g id="surface1">
    <path d="M8.57,1.61v.93l1.34.84V4.55H5.36v-.8h.53C7,3.75,7,2.68,5.89,2.68H3.75c-1.07,0-1.07,1.07,0,1.07h.54v.8l-1,1.88H3.21A3.27,3.27,0,0,0,0,9.64a3.28,3.28,0,0,0,3.21,3.22A3.28,3.28,0,0,0,6.43,9.64a3.22,3.22,0,0,0-.2-1.07H6.7c.8,0,1-.48,1.27-.77L9.88,5.63l.57,1.1A3.27,3.27,0,0,0,8.57,9.64a3.28,3.28,0,0,0,3.22,3.22A3.28,3.28,0,0,0,15,9.64a3.27,3.27,0,0,0-3.21-3.21h-.11l-1-1.88V2.85Zm-3.45,4H8.47L6.8,7.5H5.52a3.21,3.21,0,0,0-1-.74.33.33,0,0,0,0-.06ZM3.21,7.5A2.3,2.3,0,0,1,5.36,9.64a2.3,2.3,0,0,1-2.15,2.15A2.3,2.3,0,0,1,1.07,9.64,2.3,2.3,0,0,1,3.21,7.5Zm8.58,0a2.3,2.3,0,0,1,2.14,2.14,2.3,2.3,0,0,1-2.14,2.15A2.3,2.3,0,0,1,9.64,9.64,2.3,2.3,0,0,1,11.79,7.5Z"/>
  </g>
</svg>
