<svg id="Layer_1" data-name="Layer 1" xmlns="http://www.w3.org/2000/svg" width="15" height="15" viewBox="0 0 15 15">
  <g id="surface1">
    <path d="M2.14,0A2,2,0,0,0,0,2.14,2,2,0,0,0,2.14,4.29H12.86L11.79,3.21H2.14A1,1,0,0,1,1.07,2.14,1,1,0,0,1,2.14,1.07h9.65L12.86,0Zm0,1.88v.53h9.65V1.88ZM4.29,5.36A2,2,0,0,0,2.14,7.5,2,2,0,0,0,4.29,9.64H15L13.93,8.57H4.29a1.07,1.07,0,1,1,0-2.14h9.64L15,5.36Zm0,1.87v.54h9.64V7.23ZM2.14,10.71A2,2,0,0,0,0,12.86,2,2,0,0,0,2.14,15H12.86l-1.07-1.07H2.14a1.07,1.07,0,0,1,0-2.14h9.65l1.07-1.08Zm0,1.88v.54h9.65v-.54Z" fill-rule="evenodd"/>
  </g>
</svg>
