<svg id="Layer_1" data-name="Layer 1" xmlns="http://www.w3.org/2000/svg" width="15" height="15" viewBox="0 0 15 15">
  <g id="surface1">
    <path d="M1.07,1.07A1.07,1.07,0,0,0,0,2.14V13.93A1.07,1.07,0,0,0,1.07,15H13.93A1.07,1.07,0,0,0,15,13.93V2.14a1.07,1.07,0,0,0-1.07-1.07Zm.27,1.07h.54a.27.27,0,0,1,.26.27V3a.26.26,0,0,1-.26.26H1.34A.27.27,0,0,1,1.07,3V2.41A.27.27,0,0,1,1.34,2.14Zm4,3.22L9.64,8,5.36,10.71Zm7.77-3.22h.53a.27.27,0,0,1,.27.27V3a.27.27,0,0,1-.27.26h-.53A.27.27,0,0,1,12.86,3V2.41A.27.27,0,0,1,13.13,2.14ZM1.34,4.29h.54a.26.26,0,0,1,.26.26v.54a.27.27,0,0,1-.26.27H1.34a.27.27,0,0,1-.27-.27V4.55A.27.27,0,0,1,1.34,4.29Zm11.79,0h.53a.27.27,0,0,1,.27.26v.54a.27.27,0,0,1-.27.27h-.53a.27.27,0,0,1-.27-.27V4.55A.27.27,0,0,1,13.13,4.29ZM1.34,6.43h.54a.27.27,0,0,1,.26.27v.53a.27.27,0,0,1-.26.27H1.34a.27.27,0,0,1-.27-.27V6.7A.27.27,0,0,1,1.34,6.43Zm11.79,0h.53a.27.27,0,0,1,.27.27v.53a.27.27,0,0,1-.27.27h-.53a.27.27,0,0,1-.27-.27V6.7A.27.27,0,0,1,13.13,6.43ZM1.34,8.57h.54a.27.27,0,0,1,.26.27v.54a.26.26,0,0,1-.26.26H1.34a.27.27,0,0,1-.27-.26V8.84A.27.27,0,0,1,1.34,8.57Zm11.79,0h.53a.27.27,0,0,1,.27.27v.54a.27.27,0,0,1-.27.26h-.53a.27.27,0,0,1-.27-.26V8.84A.27.27,0,0,1,13.13,8.57ZM1.34,10.71h.54a.27.27,0,0,1,.26.27v.54a.27.27,0,0,1-.26.27H1.34a.27.27,0,0,1-.27-.27V11A.27.27,0,0,1,1.34,10.71Zm11.79,0h.53a.27.27,0,0,1,.27.27v.54a.27.27,0,0,1-.27.27h-.53a.27.27,0,0,1-.27-.27V11A.27.27,0,0,1,13.13,10.71ZM1.34,12.86h.54a.27.27,0,0,1,.26.27v.53a.27.27,0,0,1-.26.27H1.34a.27.27,0,0,1-.27-.27v-.53A.27.27,0,0,1,1.34,12.86Zm11.79,0h.53a.27.27,0,0,1,.27.27v.53a.27.27,0,0,1-.27.27h-.53a.27.27,0,0,1-.27-.27v-.53A.27.27,0,0,1,13.13,12.86Z"/>
  </g>
</svg>
