<svg id="Layer_1" data-name="Layer 1" xmlns="http://www.w3.org/2000/svg" width="15" height="15" viewBox="0 0 15 15">
  <g id="surface1">
    <path d="M2.14,1.07A2.3,2.3,0,0,0,0,3.21V4.29H4.29L5.36,3.21H9.64l1.07,1.08H15V3.21a2.3,2.3,0,0,0-2.14-2.14ZM0,5.09v.54s.4.8,1.07.8H3.21c.61,0,1.08-.8,1.08-.8V5.09Zm10.71,0v.54s.47.8,1.08.8h2.14c.61,0,1.07-.8,1.07-.8V5.09ZM1.61,8.57A1.57,1.57,0,0,0,0,10.18a1.54,1.54,0,0,0,1.61,1.61H2.68a.54.54,0,0,1,0,1.07H.54v1.07H2.68a1.61,1.61,0,1,0,0-3.22H1.61a.54.54,0,1,1,0-1.07H3.75V8.57ZM7,8.57a1.57,1.57,0,0,0-1.6,1.61v2.14A1.57,1.57,0,0,0,7,13.93H8a1.57,1.57,0,0,0,1.6-1.61V10.18A1.57,1.57,0,0,0,8,8.57Zm5.36,0a1.57,1.57,0,0,0-1.61,1.61,1.55,1.55,0,0,0,1.61,1.61h1.07a.54.54,0,1,1,0,1.07H11.25v1.07h2.14a1.61,1.61,0,1,0,0-3.22H12.32a.54.54,0,0,1,0-1.07h2.14V8.57ZM6.43,10.45a.79.79,0,0,1,.8-.81h.54a.79.79,0,0,1,.8.81v1.6a.79.79,0,0,1-.8.81H7.23a.79.79,0,0,1-.8-.81Z"/>
  </g>
</svg>
