<svg id="Layer_1" data-name="Layer 1" xmlns="http://www.w3.org/2000/svg" width="15" height="15" viewBox="0 0 15 15">
  <g id="surface1">
    <path d="M3.21,2.14A2.3,2.3,0,0,0,1.07,4.29,3.13,3.13,0,0,1,4.29,7.5h6.42a3.08,3.08,0,0,1,3.22-3.21,2.3,2.3,0,0,0-2.14-2.15ZM1.07,5.36A1,1,0,0,0,0,6.43,1.13,1.13,0,0,0,1.07,7.5v3.21a1,1,0,0,0,1.07,1.08h.54a1,1,0,0,0,1.07,1.07,1,1,0,0,0,1.07-1.07h5.36a1.07,1.07,0,0,0,2.14,0h.54a1.14,1.14,0,0,0,1.07-1.08V7.5A1.06,1.06,0,0,0,15,6.43a1,1,0,0,0-1.07-1.07c-1.07,0-2.14,1.07-2.14,3.21H3.21C3.21,6.43,2.14,5.36,1.07,5.36Z"/>
  </g>
</svg>
