<svg id="Layer_1" data-name="Layer 1" xmlns="http://www.w3.org/2000/svg" width="15" height="15" viewBox="0 0 15 15">
  <g id="surface1">
    <path d="M.9,2.14A1,1,0,0,0,0,3.21v9.65H2.14V3.21A1,1,0,0,0,1.07,2.14.78.78,0,0,0,.9,2.14Zm12.86,0a1,1,0,0,0-.9,1.07v9.65H15V3.21a1,1,0,0,0-1.07-1.07A.78.78,0,0,0,13.76,2.14ZM3.21,4.29v7.5h8.58V4.29ZM5.09,5.36H9.91s.8,0,.8.53-.8.54-.8.54H5.09s-.8,0-.8-.54S5.09,5.36,5.09,5.36Zm0,2.14H9.91s.8,0,.8.54-.8.53-.8.53H5.09s-.8,0-.8-.53S5.09,7.5,5.09,7.5Zm0,2.14H9.91s.8,0,.8.54-.8.53-.8.53H5.09s-.8,0-.8-.53S5.09,9.64,5.09,9.64Z"/>
  </g>
</svg>
