<svg id="Layer_1" data-name="Layer 1" xmlns="http://www.w3.org/2000/svg" width="15" height="15" viewBox="0 0 15 15">
  <g id="surface1">
    <path d="M4.69.54A1.82,1.82,0,0,0,2.81,2.41c0,1.22.56,1.88,1.78,1.88h5.76a1.64,1.64,0,0,0,1.84-1.84A1.85,1.85,0,0,0,10.31.54,2.81,2.81,0,0,0,7.5,2.64,2.79,2.79,0,0,0,4.69.54Zm0,.93c1.52,0,1.77,1.21,1.87,1.88H4.69a.87.87,0,0,1-.94-.94A.87.87,0,0,1,4.69,1.47Zm5.62,0a.9.9,0,0,1,.94.94.87.87,0,0,1-.94.94H8.44C8.54,2.68,8.79,1.47,10.31,1.47Zm-6,3.89A2.3,2.3,0,0,0,2.14,7.5V9.38H6.7v-4Zm4,0v4h4.56V7.5a2.3,2.3,0,0,0-2.15-2.14ZM2.14,11v1.88A2.3,2.3,0,0,0,4.29,15H6.7V11ZM8.3,11v4h2.41a2.3,2.3,0,0,0,2.15-2.14V11Z"/>
  </g>
</svg>
