<svg id="Layer_1" data-name="Layer 1" xmlns="http://www.w3.org/2000/svg" width="15" height="15" viewBox="0 0 15 15">
  <g id="surface1">
    <path d="M4.29,0V10.21a2.67,2.67,0,0,0-1.61-.57,2.68,2.68,0,0,0,0,5.36,2.68,2.68,0,0,0,2.61-2.14h.14a2.71,2.71,0,1,0,1-2.65V0ZM8.57,0V2.14h4.29V3.21H8.57V4.29h4.29V5.36H8.57V6.43h4.29V7.5H8.57V8.57h4.29V15H15V2.14A2.3,2.3,0,0,0,12.86,0ZM2.68,10.71a1.61,1.61,0,1,1-1.61,1.61A1.61,1.61,0,0,1,2.68,10.71Zm5.36,0a1.61,1.61,0,1,1-1.61,1.61A1.6,1.6,0,0,1,8,10.71Z"/>
  </g>
</svg>
