<svg id="Layer_1" data-name="Layer 1" xmlns="http://www.w3.org/2000/svg" width="15" height="15" viewBox="0 0 15 15">
  <g id="surface1">
    <path d="M2.14,0V15H12.86V0ZM7.5,1.07A2.15,2.15,0,1,1,5.36,3.21,2.14,2.14,0,0,1,7.5,1.07Zm0,1.61A.54.54,0,1,0,8,3.21.54.54,0,0,0,7.5,2.68Zm0,3.75a3.89,3.89,0,0,1,3.75,3.75A3.9,3.9,0,0,1,7.5,13.93a3.9,3.9,0,0,1-3.75-3.75A3.89,3.89,0,0,1,7.5,6.43Zm0,2.14a1.68,1.68,0,0,0-1.61,1.61A1.68,1.68,0,0,0,7.5,11.79a1.68,1.68,0,0,0,1.61-1.61A1.68,1.68,0,0,0,7.5,8.57Z" fill-rule="evenodd"/>
  </g>
</svg>
