<svg id="Layer_1" data-name="Layer 1" xmlns="http://www.w3.org/2000/svg" width="15" height="15" viewBox="0 0 15 15">
  <g id="surface1">
    <path d="M3.21,1.07A2.3,2.3,0,0,0,1.07,3.21V15H13.93V3.21a2.3,2.3,0,0,0-2.14-2.14ZM7.5,2.14A1,1,0,0,1,8.57,3.21,1.05,1.05,0,0,1,7.5,4.29H6.43A1.05,1.05,0,0,1,5.36,3.21,1,1,0,0,1,6.43,2.14Zm3.21,0A1.08,1.08,0,1,1,9.64,3.21,1.08,1.08,0,0,1,10.71,2.14ZM7.5,5.93A3.75,3.75,0,1,1,3.75,9.68,3.75,3.75,0,0,1,7.5,5.93ZM5.36,9.68a2.14,2.14,0,0,0,4.28,0Z"/>
  </g>
</svg>
