<svg id="Layer_1" data-name="Layer 1" xmlns="http://www.w3.org/2000/svg" width="15" height="15" viewBox="0 0 15 15">
  <g id="surface1">
    <path d="M.9,2.14A1,1,0,0,0,0,3.21v9.65H2.14V9.31a2.11,2.11,0,0,1-.9-1,2.24,2.24,0,0,1,.9-2.68V3.21A1,1,0,0,0,1.07,2.14.78.78,0,0,0,.9,2.14Zm12.86,0a1,1,0,0,0-.9,1.07v9.65H15V3.21a1,1,0,0,0-1.07-1.07A.78.78,0,0,0,13.76,2.14ZM10.58,3.21a1.21,1.21,0,0,0-.3.11L2.78,6.53A1.11,1.11,0,0,0,2.14,8a1.09,1.09,0,0,0,1.51.47l7.5-3.21A1.13,1.13,0,0,0,11.75,4,1.11,1.11,0,0,0,10.58,3.21Z"/>
  </g>
</svg>
