<svg id="Layer_1" data-name="Layer 1" xmlns="http://www.w3.org/2000/svg" width="15" height="15" viewBox="0 0 15 15">
  <g id="surface1">
    <path d="M3.65,1.07A1.67,1.67,0,0,0,2.14,2.68,1.68,1.68,0,0,0,3.75,4.29,1.68,1.68,0,0,0,5.36,2.68,1.68,1.68,0,0,0,3.65,1.07Zm8.57,3.22a1.66,1.66,0,0,0-1.51,1.6A1.68,1.68,0,0,0,12.32,7.5a1.68,1.68,0,0,0,1.61-1.61A1.67,1.67,0,0,0,12.22,4.29Zm-9,.53c-1.57,0-2,2-2.1,3.08L0,7.5V8.57l6.39,2.28L5.36,15H9.64l-1-3.35L15,13.93V12.86l-1-.37c.17-.92.73-4.45-1.14-4.45s-2.06,2.4-2.11,3.31L4.39,9.07C4.59,7.86,5,4.82,3.21,4.82Z"/>
  </g>
</svg>
