<svg id="Layer_1" data-name="Layer 1" xmlns="http://www.w3.org/2000/svg" width="15" height="15" viewBox="0 0 15 15">
  <g id="surface1">
    <path d="M8.87,2a.76.76,0,0,0-.3.1L5.32,3.88A.83.83,0,0,0,5,5.05l.61,1.11L2.14,8.3v.81a1.88,1.88,0,0,1,1.07-.54c.51,0,1.53,1.07,2.15,1.07S7,8.57,7.5,8.57,9.08,9.64,9.64,9.64H10L7,4.82,9.21,3.65a.83.83,0,0,0,.43-1.11A.87.87,0,0,0,8.87,2Zm1.84,2.78a1.61,1.61,0,1,0,1.61,1.61A1.61,1.61,0,0,0,10.71,4.82Zm-7.5,5.36c-.57,0-1.59,1.07-2.14,1.07v1.61c.58,0,1.64-1.07,2.14-1.07s1.58,1.07,2.15,1.07S7,11.79,7.5,11.79s1.63,1.07,2.14,1.07,1.64-1.07,2.15-1.07,1.6,1.07,2.14,1.07V11.25c-.45,0-1.57-1.1-2.14-1.07s-1.58,1.07-2.15,1.07S8,10.18,7.5,10.18s-1.66,1.07-2.14,1.07S3.79,10.18,3.21,10.18Z"/>
  </g>
</svg>
