<svg id="Layer_1" data-name="Layer 1" xmlns="http://www.w3.org/2000/svg" width="15" height="15" viewBox="0 0 15 15">
  <g id="surface1">
    <path d="M6.39,0a1.08,1.08,0,0,0-1,1.07l0,1.07H3.21L1.88,6.43A1.89,1.89,0,0,0,0,8.57v4.29H2.14v1.07A1,1,0,0,0,3.21,15a1.05,1.05,0,0,0,1.08-1.07V12.86l6.42,0v1.11a1.08,1.08,0,0,0,2.15,0V12.86H15V8.57a1.94,1.94,0,0,0-2.14-2.14L11.79,2.14H9.64V1.07A1,1,0,0,0,8.57,0Zm0,1.07H8.57V2.14H6.43ZM4.29,3.75h6.42l.64,2.68H3.55ZM3.21,8.57A1.07,1.07,0,1,1,2.14,9.64,1.08,1.08,0,0,1,3.21,8.57Zm8.58,0a1.07,1.07,0,1,1-1.08,1.07A1.07,1.07,0,0,1,11.79,8.57Z"/>
  </g>
</svg>
