<svg id="Layer_1" data-name="Layer 1" xmlns="http://www.w3.org/2000/svg" width="15" height="15" viewBox="0 0 15 15">
  <g id="surface1">
    <path d="M0,0V7.5s0,4.29,4.29,4.29a5.13,5.13,0,0,0,1.37-.2,4.92,4.92,0,0,1,0-.88v-.23a3.57,3.57,0,0,1-1.34.23A3.15,3.15,0,0,1,1.07,7.5V1.61a7.14,7.14,0,0,0,6.43,0V2.85a10.36,10.36,0,0,0,1.07.36V0C5.36,1.47,3.21,1.4,0,0ZM2.68,3.21A1.08,1.08,0,1,0,3.75,4.29,1.08,1.08,0,0,0,2.68,3.21Zm3.75,0v7.5S6.43,15,10.71,15,15,10.71,15,10.71V3.21C11.79,4.68,9.64,4.61,6.43,3.21ZM9.11,6.43A1.07,1.07,0,1,1,8,7.5,1.07,1.07,0,0,1,9.11,6.43Zm3.21,0A1.07,1.07,0,1,1,11.25,7.5,1.07,1.07,0,0,1,12.32,6.43ZM4.29,7A2,2,0,0,0,2.14,9.11H5.63V7.33A2.2,2.2,0,0,0,4.29,7Zm4.28,3.75h4.29a2.3,2.3,0,0,1-2.15,2.15A2.3,2.3,0,0,1,8.57,10.71Z"/>
  </g>
</svg>
