<svg id="Layer_1" data-name="Layer 1" xmlns="http://www.w3.org/2000/svg" width="15" height="15" viewBox="0 0 15 15">
  <g id="surface1">
    <path d="M0,1.07V2.41c2.14,0,3.17.38,3.21,2.14V7a3,3,0,0,0,2.68,3.22A4.7,4.7,0,0,1,4.82,7V4.55A2.92,2.92,0,0,0,4,2.41c1.35,0,2.41.56,2.45,2.14V7a3,3,0,0,0,2.68,3.22A4.7,4.7,0,0,1,8,7V4.55A3.31,3.31,0,0,0,7.4,2.41,2,2,0,0,1,9.64,4.55V7a3,3,0,0,0,2.68,3.22A4.7,4.7,0,0,1,11.25,7V4.55c0-3.21-2.68-3.48-3.75-3.48ZM3.21,11.25c-.57,0-1.59,1.07-2.14,1.07v1.61c.58,0,1.64-1.07,2.14-1.07s1.58,1.07,2.15,1.07S7,12.86,7.5,12.86s1.63,1.07,2.14,1.07,1.64-1.07,2.15-1.07,1.6,1.07,2.14,1.07V12.32c-.45,0-1.57-1.1-2.14-1.07s-1.58,1.07-2.15,1.07S8,11.25,7.5,11.25s-1.66,1.07-2.14,1.07S3.79,11.25,3.21,11.25Z"/>
  </g>
</svg>
