<svg xmlns="http://www.w3.org/2000/svg" viewBox="0 0 154 154" height="154" width="154"><title>alpine-hut-14.svg</title><rect fill="none" x="0" y="0" width="154" height="154"></rect><path fill="#725a50" transform="translate(2 2)" d="M 7.5 1.070312 L 0 5.355469 L 0 7.5 L 1.605469 6.804688 L 1.605469 15 L 3.214844 15 L 3.214844 6.105469 L 7.5 4.285156 L 11.785156 6.105469 L 11.785156 15 L 13.394531 15 L 13.394531 6.804688 L 15 7.5 L 15 5.355469 Z M 5.894531 6.429688 C 5.28125 6.429688 4.285156 7.804688 4.285156 9.644531 C 4.285156 11.480469 5.355469 11.785156 5.355469 11.785156 L 5.355469 15 L 6.429688 15 L 6.429688 11.785156 C 6.429688 11.785156 7.5 11.480469 7.5 9.644531 C 7.5 7.804688 6.503906 6.429688 5.894531 6.429688 Z M 8.570312 6.429688 L 8.570312 15 L 9.644531 15 L 9.644531 11.785156 L 10.714844 11.785156 L 10.714844 10.714844 C 10.714844 8.570312 9.644531 6.429688 8.570312 6.429688 Z M 8.570312 6.429688 "></path></svg>