<svg xmlns="http://www.w3.org/2000/svg" viewBox="0 0 154 154" height="154" width="154"><title>archaeological-site-14.svg</title><rect fill="none" x="0" y="0" width="154" height="154"></rect><path fill="#725a50" transform="translate(2 2)" d="M 3.214844 0 L 3.214844 1.070312 L 4.285156 1.070312 C 4.925781 1.070312 5.1875 2.1875 5.289062 3.113281 C 4.25 2.304688 3.242188 2.015625 2.378906 2.175781 C 1.273438 2.382812 0.535156 3.402344 0.535156 4.554688 C 0.535156 5.457031 0.871094 6.246094 1.441406 7.066406 C 1.9375 7.78125 2.640625 8.609375 3.515625 9.609375 C 3.910156 11.066406 4.632812 12.398438 5.355469 13.125 L 5.355469 13.929688 L 4.285156 14.464844 L 4.285156 15 L 10.714844 15 L 10.714844 14.464844 L 9.644531 13.929688 L 9.644531 13.125 C 10.367188 12.398438 11.089844 11.066406 11.484375 9.609375 C 12.359375 8.609375 13.0625 7.78125 13.558594 7.066406 C 14.128906 6.246094 14.464844 5.457031 14.464844 4.554688 C 14.464844 3.402344 13.726562 2.382812 12.621094 2.175781 C 11.757812 2.015625 10.75 2.304688 9.710938 3.113281 C 9.8125 2.1875 10.074219 1.070312 10.714844 1.070312 L 11.785156 1.070312 L 11.785156 0 Z M 2.542969 3.246094 C 3.089844 3.144531 4.003906 3.355469 5.054688 4.320312 C 3.859375 4.46875 3.214844 5.515625 3.214844 7.5 C 3.214844 7.535156 3.214844 7.566406 3.214844 7.601562 C 2.847656 7.175781 2.546875 6.800781 2.308594 6.460938 C 1.808594 5.738281 1.605469 5.210938 1.605469 4.554688 C 1.605469 3.804688 1.941406 3.363281 2.542969 3.246094 Z M 11.917969 3.246094 C 12.121094 3.21875 12.304688 3.21875 12.457031 3.246094 C 13.058594 3.363281 13.394531 3.804688 13.394531 4.554688 C 13.394531 5.210938 13.191406 5.738281 12.691406 6.460938 C 12.453125 6.800781 12.152344 7.175781 11.785156 7.601562 C 11.785156 7.566406 11.785156 7.535156 11.785156 7.5 C 11.785156 5.515625 11.140625 4.46875 9.945312 4.320312 C 10.707031 3.621094 11.390625 3.324219 11.917969 3.246094 Z M 11.917969 3.246094 "></path></svg>