<svg xmlns="http://www.w3.org/2000/svg" viewBox="0 0 25 25" height="25" width="25"><title>buddhist_15.svg</title><rect fill="none" x="0" y="0" width="25" height="25"></rect><rect x="1" y="1" rx="11.5" ry="11.5" width="23" height="23" stroke="#bbb" style="stroke-linejoin:round;stroke-miterlimit:4;" fill="#bbb" stroke-width="2"></rect><rect x="1" y="1" width="23" height="23" rx="11.5" ry="11.5" fill="#fff"></rect><path fill="#725a50" transform="translate(3 3)" d="M10.671,5.692H8.329A.141.141,0,0,1,8.2,5.5l.478-1.183a.141.141,0,0,1,.131-.088l1.372.013a.138.138,0,0,1,.128.086L10.8,5.5A.14.14,0,0,1,10.671,5.692ZM9.492,2.6l-.372.923h.76Zm-2.3,6.319c-.688.155-3.847,1.2-4.045,7.359-.007.2.113.363.259.364l12.188.059c.143,0,.26-.148.261-.34.009-1.285-.222-5.842-3.838-7.362a1.121,1.121,0,0,0-.424-.084l-4.169-.02A1.069,1.069,0,0,0,7.191,8.918ZM11.752,7.81,11.2,6.485a.139.139,0,0,0-.13-.086H7.916a.139.139,0,0,0-.13.087L7.247,7.819a.14.14,0,0,0,.131.193l4.244-.007A.14.14,0,0,0,11.752,7.81Z"></path></svg>