<svg xmlns="http://www.w3.org/2000/svg" viewBox="0 0 23 23" height="23" width="23"><title>bakery_15.svg</title><rect fill="none" x="0" y="0" width="23" height="23"></rect><rect x="0" y="0" width="23" height="23" rx="11.5" ry="11.5" fill="#e07f3f"></rect><path fill="#ffffff" transform="translate(2 2)" d="M6.5,8.866A4.486,4.486,0,0,0,5.155,11.2a4.211,4.211,0,0,0-.076.7c-.008.213.059.443.317.391a.509.509,0,0,0,.295-.373A3.713,3.713,0,0,1,8.614,8.454a8.092,8.092,0,0,1,1.227-.1c-.453.433-.913.806-1.292,1.25a3.71,3.71,0,0,0-.87,2.134c-.021.237-.013.477.3.491.287.013.316-.2.332-.433a3.53,3.53,0,0,1,2.853-3.108,2.188,2.188,0,0,1,.915.059,8.874,8.874,0,0,1,1.646.7c-.23.047-.466.079-.692.144a2.937,2.937,0,0,0-2.042,2.7c0,.228.013.445.3.462.264.016.311-.188.344-.4a2.932,2.932,0,0,1,2.246-2.307,1.232,1.232,0,0,1,1.234.425,2.925,2.925,0,0,1,.816,2.38,1.607,1.607,0,0,1-.959,1.367,6.41,6.41,0,0,1-1.917.52,43.706,43.706,0,0,1-7.545-.047,4.352,4.352,0,0,1-.9-.214,2.06,2.06,0,0,1-1.385-2.886,3.6,3.6,0,0,1,1.014-1.447A6.417,6.417,0,0,1,6.5,8.866Z"></path><path fill="#ffffff" transform="translate(2 2)" d="M7.42,4.124c.109.078.23.121.27.2a.354.354,0,0,1-.011.309c-.453.529-.291.973.111,1.451A1.4,1.4,0,0,1,7.761,7.9.528.528,0,0,1,7.3,8.04c-.218-.1-.165-.321-.053-.512a.9.9,0,0,0-.1-1.244,1.494,1.494,0,0,1-.021-1.917A2.312,2.312,0,0,1,7.42,4.124Z"></path><path fill="#ffffff" transform="translate(2 2)" d="M9.689,4.124c.108.078.229.121.269.2a.35.35,0,0,1-.011.309c-.453.529-.291.973.111,1.451A1.4,1.4,0,0,1,10.029,7.9a.527.527,0,0,1-.462.139c-.218-.1-.164-.321-.053-.512a.9.9,0,0,0-.1-1.244,1.494,1.494,0,0,1-.021-1.917A2.26,2.26,0,0,1,9.689,4.124Z"></path><path fill="#ffffff" transform="translate(2 2)" d="M11.957,4.124c.108.078.23.121.269.2a.347.347,0,0,1-.011.309c-.453.529-.291.973.111,1.451A1.4,1.4,0,0,1,12.3,7.9a.528.528,0,0,1-.462.139c-.218-.1-.165-.321-.054-.512a.9.9,0,0,0-.1-1.244,1.494,1.494,0,0,1-.022-1.917A2.327,2.327,0,0,1,11.957,4.124Z"></path></svg>