<svg xmlns="http://www.w3.org/2000/svg" viewBox="0 0 25 25" height="25" width="25"><title>atm_15.svg</title><rect fill="none" x="0" y="0" width="25" height="25"></rect><rect x="1" y="1" rx="11.5" ry="11.5" width="23" height="23" stroke="#bbb" style="stroke-linejoin:round;stroke-miterlimit:4;" fill="#bbb" stroke-width="2"></rect><rect x="1" y="1" width="23" height="23" rx="11.5" ry="11.5" fill="#fff"></rect><path fill="#5d60be" transform="translate(3 3)" d="M15.5,6.3V4.7H4.2V6.3H5.6v9.8c0,.4.2.6.7.6h7.2c.5,0,.7-.2.7-.7V6.3h1.3Zm-8.2,10H6.2V5.3H7.3Zm6.1,0H9.3V5.3h4.1Z"></path><path fill="#5d60be" transform="translate(3 3)" d="M17.5,6.9a1.752,1.752,0,0,1-1.7,1.7H14.6V7.9h1.1a.945.945,0,0,0,1-1V4.4a1,1,0,0,0-1-1H3.9a.945.945,0,0,0-1,1V6.9a.945.945,0,0,0,1,1H5.1v.7H3.7A1.594,1.594,0,0,1,2.3,7.3a2.769,2.769,0,0,1-.1-.9v-2A1.733,1.733,0,0,1,4,2.6H15.7a1.685,1.685,0,0,1,1.7,1.7A23.484,23.484,0,0,1,17.5,6.9Z"></path><path fill="#5d60be" transform="translate(3 3)" d="M12.5,7.6v.5a.472.472,0,0,1-.5.5H11a.472.472,0,0,1-.5-.5v-1a.472.472,0,0,1,.5-.5h1c.3,0,.4.2.5.5Z"></path></svg>