<svg xmlns="http://www.w3.org/2000/svg" viewBox="0 0 21 21" height="21" width="21"><title>atm_11.svg</title><rect fill="none" x="0" y="0" width="21" height="21"></rect><rect x="1" y="1" rx="9.5" ry="9.5" width="19" height="19" stroke="#bbb" style="stroke-linejoin:round;stroke-miterlimit:4;" fill="#bbb" stroke-width="2"></rect><rect x="1" y="1" width="19" height="19" rx="9.5" ry="9.5" fill="#fff"></rect><path fill="#5d60be" transform="translate(3 3)" d="M11.6,5V3.8H3.2V5h1v7.4a.472.472,0,0,0,.5.5H10a.472.472,0,0,0,.5-.5V5ZM5.5,12.4H4.7V4.2h.8Zm4.6,0H7V4.2h3.1Z"></path><path fill="#5d60be" transform="translate(3 3)" d="M13.1,5.4a1.216,1.216,0,0,1-1.2,1.2H11V6.1h.7a.773.773,0,0,0,.8-.7V3.5a.709.709,0,0,0-.8-.7H2.9c-.4-.1-.7.2-.7.7V5.4a.789.789,0,0,0,.8.8h.8v.5h-1a1.272,1.272,0,0,1-1.1-1V3.6A1.261,1.261,0,0,1,3,2.3h8.7A1.324,1.324,0,0,1,13,3.6,9.722,9.722,0,0,1,13.1,5.4Z"></path><path fill="#5d60be" transform="translate(3 3)" d="M9.3,5.9v.4a.265.265,0,0,1-.3.3H8.2a.265.265,0,0,1-.3-.3V5.5c0-.2.1-.3.3-.4H9a.265.265,0,0,1,.3.3Z"></path></svg>