<svg xmlns="http://www.w3.org/2000/svg" viewBox="0 0 21 21" height="21" width="21"><title>bakery-15.svg</title><rect fill="none" x="0" y="0" width="21" height="21"></rect><rect x="1" y="1" rx="9.75" ry="9.75" width="19.5" height="19.5" stroke="#bbb" style="stroke-linejoin:round;stroke-miterlimit:4;" fill="#bbb" stroke-width="2"></rect><rect x="1" y="1" width="19.5" height="19.5" rx="9.75" ry="9.75" fill="#fff"></rect><path fill="#d97200" transform="translate(3 3)" d="M7.23,3.21,8.84,7.5H7.23L5.63,3.21H3.75L5.36,7.5H3.75L2.33,3.83A7,7,0,0,0,0,8.57v2.14a1,1,0,0,0,1.07,1.08H13.93A1,1,0,0,0,15,10.71V8.57a5.56,5.56,0,0,0-4.29-5.36L12.32,7.5H10.71L9.11,3.21Z"></path></svg>