<svg xmlns="http://www.w3.org/2000/svg" viewBox="0 0 19 19" height="19" width="19"><title>car_repair_15.svg</title><rect fill="none" x="0" y="0" width="19" height="19"></rect><path fill="#725a50" transform="translate(2 2)" d="M11.25,0A2.66,2.66,0,0,0,8.94,1.34H2.68A1.44,1.44,0,0,0,1.07,2.68,1.43,1.43,0,0,0,2.68,4H8.94a2.66,2.66,0,0,0,4.62,0H11.79L10.18,2.68l1.61-1.34h1.77A2.66,2.66,0,0,0,11.25,0ZM2.68,2.14a.54.54,0,1,1-.54.54A.54.54,0,0,1,2.68,2.14ZM4.29,6.43,3.21,9.64a1.08,1.08,0,0,0-1.07,1.07v3.22H3.21A1.05,1.05,0,0,0,4.29,15a1,1,0,0,0,1.07-1.07H9.64a1.08,1.08,0,0,0,2.15,0h1.07V10.71a1.1,1.1,0,0,0-1.07-1.07L10.71,6.43ZM5.36,7.5H9.64l.67,2.14H4.69ZM4.29,11a.81.81,0,1,1-.81.81A.8.8,0,0,1,4.29,11Zm6.42,0a.81.81,0,1,1-.8.81A.81.81,0,0,1,10.71,11Z"></path></svg>