<svg xmlns="http://www.w3.org/2000/svg" viewBox="0 0 19 19" height="19" width="19"><title>doityourself-15.svg</title><rect fill="none" x="0" y="0" width="19" height="19"></rect><path fill="#725a50" transform="translate(2 2)" d="M9.64,0A3,3,0,0,0,8.3,2.48,2.94,2.94,0,0,0,9.91,5.09v8.3A1.44,1.44,0,0,0,11.25,15a1.43,1.43,0,0,0,1.34-1.61V5.09A2.94,2.94,0,0,0,14.2,2.48,3,3,0,0,0,12.86,0V1.61l-1.61,1.6L9.64,1.61ZM4.29,0C3.7,0,3.21.41,3.21.8H1.61L.27,2.68,1.61,4.55h1.6v9.11c0,.73.41,1.34,1.08,1.34s1.07-.57,1.07-1.34V4.55H7.5V.8H5.36C5.36.4,5,0,4.29,0Zm7,12.86a.54.54,0,1,1-.54.53A.54.54,0,0,1,11.25,12.86Z"></path></svg>