<svg xmlns="http://www.w3.org/2000/svg" viewBox="0 0 21 21" height="21" width="21"><title>memorial-11.svg</title><rect fill="none" x="0" y="0" width="21" height="21"></rect><rect x="1" y="1" rx="9.5" ry="9.5" width="19" height="19" stroke="#bbb" style="stroke-linejoin:round;stroke-miterlimit:4;" fill="#bbb" stroke-width="2"></rect><rect x="1" y="1" width="19" height="19" rx="9.5" ry="9.5" fill="#fff"></rect><path fill="#725a50" transform="translate(3 3)" d="M1.5,1.5A1.57,1.57,0,0,0,0,3v9a1.73,1.73,0,0,0,1.5,1.5h12A1.6,1.6,0,0,0,15,12V3a1.58,1.58,0,0,0-1.5-1.5ZM4.5,9h6v1.5h-6ZM6,3H9V4.5H6ZM3,6h9V7.5H3Z"></path></svg>