<svg xmlns="http://www.w3.org/2000/svg" viewBox="0 0 21 21" height="21" width="21"><title>mobile-phone-15.svg</title><rect fill="none" x="0" y="0" width="21" height="21"></rect><rect x="1" y="1" rx="9.5" ry="9.5" width="19" height="19" stroke="#bbb" style="stroke-linejoin:round;stroke-miterlimit:4;" fill="#bbb" stroke-width="2"></rect><rect x="1" y="1" width="19" height="19" rx="9.5" ry="9.5" fill="#fff"></rect><path fill="#725a50" transform="translate(3 3)" d="M6.43,0A1.07,1.07,0,0,0,5.36,1.07V2.14A2.21,2.21,0,0,0,3.21,4.29v8.57A2.06,2.06,0,0,0,5.36,15H9.64a2.06,2.06,0,0,0,2.15-2.14V4.29A2.06,2.06,0,0,0,9.64,2.14H7.5V1.07A1.06,1.06,0,0,0,6.43,0ZM4.29,4.29h6.42v7.5H4.29Zm2.14,8.57H8.57v1.07H6.43Z"></path></svg>