<svg xmlns="http://www.w3.org/2000/svg" viewBox="0 0 19 19" height="19" width="19"><title>photo-15.svg</title><rect fill="none" x="0" y="0" width="19" height="19"></rect><path fill="#725a50" transform="translate(2 2)" d="M5.89,1.61c-1.07,0-1.27.62-1.6,1.87h6.42c-.34-1.3-.57-1.87-1.6-1.87ZM3.21,4.29Q0,4.29,0,7.5V9.64q0,3.22,3.21,3.22h8.58Q15,12.86,15,9.64V7.5q0-3.21-3.21-3.21ZM2.68,5.36a.54.54,0,1,1-.54.53A.53.53,0,0,1,2.68,5.36Zm4.82,0a3.16,3.16,0,0,1,3.21,3.21A3.17,3.17,0,0,1,7.5,11.79,3.21,3.21,0,0,1,4.29,8.57,3.13,3.13,0,0,1,7.5,5.36Zm0,1.07A2,2,0,0,0,5.36,8.57,2,2,0,0,0,7.5,10.71,2,2,0,0,0,9.64,8.57,2,2,0,0,0,7.5,6.43Z"></path></svg>