<svg xmlns="http://www.w3.org/2000/svg" viewBox="0 0 21 21" height="21" width="21"><title>taoist-15.svg</title><rect fill="none" x="0" y="0" width="21" height="21"></rect><rect x="1" y="1" rx="9.5" ry="9.5" width="19" height="19" stroke="#bbb" style="stroke-linejoin:round;stroke-miterlimit:4;" fill="#bbb" stroke-width="2"></rect><rect x="1" y="1" width="19" height="19" rx="9.5" ry="9.5" fill="#fff"></rect><path fill="#725a50" transform="translate(3 3)" d="M7.5,15A7.5,7.5,0,1,0,0,7.5,7.53,7.53,0,0,0,7.5,15Zm0-1.07a6.43,6.43,0,0,1,0-12.86c3.21,0,4.29,5.87,0,6.43S4.38,13.93,7.5,13.93Zm0-2.14a1.08,1.08,0,1,1,1.07-1.08A1.08,1.08,0,0,1,7.5,11.79Zm0-6.43A1.08,1.08,0,1,0,6.43,4.29,1.07,1.07,0,0,0,7.5,5.36Z"></path></svg>